<svg width="2600" height="1040" viewBox="0 0 2600 1040" fill="none" xmlns="http://www.w3.org/2000/svg">
<g clip-path="url(#clip0)">
<path d="M613.377 358.25L634.077 390.95L536.727 447.8L634.077 503.6L612.627 537.35L495.777 464.75V431.15L613.377 358.25ZM723.21 399.05C728.21 392.45 734.21 387.2 741.21 383.3C748.31 379.4 755.91 377.45 764.01 377.45C784.51 377.45 799.41 385.05 808.71 400.25C818.11 415.45 822.81 436 822.81 461.9C822.81 478.3 820.36 492.95 815.46 505.85C810.66 518.65 803.51 528.75 794.01 536.15C784.51 543.45 772.86 547.1 759.06 547.1C742.36 547.1 729.21 540.6 719.61 527.6L717.81 542H675.81V319.4L723.21 314.45V399.05ZM746.61 512.6C755.01 512.6 761.66 508.75 766.56 501.05C771.46 493.25 773.91 480.4 773.91 462.5C773.91 449.3 772.86 439.1 770.76 431.9C768.76 424.6 765.86 419.55 762.06 416.75C758.36 413.85 754.01 412.4 749.01 412.4C743.71 412.4 738.96 414.05 734.76 417.35C730.56 420.65 726.71 425.15 723.21 430.85V498.05C726.21 502.75 729.56 506.35 733.26 508.85C736.96 511.35 741.41 512.6 746.61 512.6ZM903.093 382.7V491.75C903.093 499.45 904.493 504.75 907.293 507.65C910.193 510.55 914.193 512 919.293 512C924.193 512 929.093 510.45 933.993 507.35C938.893 504.25 942.993 500.05 946.293 494.75V382.7H993.693V542H952.293L950.193 523.4C944.793 531.2 937.693 537.1 928.893 541.1C920.093 545.1 910.893 547.1 901.293 547.1C885.893 547.1 874.443 542.65 866.943 533.75C859.443 524.75 855.693 512.7 855.693 497.6V382.7H903.093ZM1082.98 399.05C1087.98 392.45 1093.98 387.2 1100.98 383.3C1108.08 379.4 1115.68 377.45 1123.78 377.45C1144.28 377.45 1159.18 385.05 1168.48 400.25C1177.88 415.45 1182.58 436 1182.58 461.9C1182.58 478.3 1180.13 492.95 1175.23 505.85C1170.43 518.65 1163.28 528.75 1153.78 536.15C1144.28 543.45 1132.63 547.1 1118.83 547.1C1102.13 547.1 1088.98 540.6 1079.38 527.6L1077.58 542H1035.58V319.4L1082.98 314.45V399.05ZM1106.38 512.6C1114.78 512.6 1121.43 508.75 1126.33 501.05C1131.23 493.25 1133.68 480.4 1133.68 462.5C1133.68 449.3 1132.63 439.1 1130.53 431.9C1128.53 424.6 1125.63 419.55 1121.83 416.75C1118.13 413.85 1113.78 412.4 1108.78 412.4C1103.48 412.4 1098.73 414.05 1094.53 417.35C1090.33 420.65 1086.48 425.15 1082.98 430.85V498.05C1085.98 502.75 1089.33 506.35 1093.03 508.85C1096.73 511.35 1101.18 512.6 1106.38 512.6ZM1262.86 399.05C1267.86 392.45 1273.86 387.2 1280.86 383.3C1287.96 379.4 1295.56 377.45 1303.66 377.45C1324.16 377.45 1339.06 385.05 1348.36 400.25C1357.76 415.45 1362.46 436 1362.46 461.9C1362.46 478.3 1360.01 492.95 1355.11 505.85C1350.31 518.65 1343.16 528.75 1333.66 536.15C1324.16 543.45 1312.51 547.1 1298.71 547.1C1282.01 547.1 1268.86 540.6 1259.26 527.6L1257.46 542H1215.46V319.4L1262.86 314.45V399.05ZM1286.26 512.6C1294.66 512.6 1301.31 508.75 1306.21 501.05C1311.11 493.25 1313.56 480.4 1313.56 462.5C1313.56 449.3 1312.51 439.1 1310.41 431.9C1308.41 424.6 1305.51 419.55 1301.71 416.75C1298.01 413.85 1293.66 412.4 1288.66 412.4C1283.36 412.4 1278.61 414.05 1274.41 417.35C1270.21 420.65 1266.36 425.15 1262.86 430.85V498.05C1265.86 502.75 1269.21 506.35 1272.91 508.85C1276.61 511.35 1281.06 512.6 1286.26 512.6ZM1478.44 319.4V491.9C1478.44 498.3 1480.24 502.9 1483.84 505.7C1487.54 508.4 1492.59 509.75 1498.99 509.75C1503.09 509.75 1507.04 509.3 1510.84 508.4C1514.64 507.4 1518.19 506.25 1521.49 504.95L1532.89 536.6C1527.49 539.4 1520.99 541.85 1513.39 543.95C1505.79 546.05 1496.94 547.1 1486.84 547.1C1467.64 547.1 1453.54 541.6 1444.54 530.6C1435.54 519.5 1431.04 504.65 1431.04 486.05V351.8H1384.09V319.4H1478.44ZM1616.32 476.15C1617.92 489.15 1622.17 498.5 1629.07 504.2C1635.97 509.8 1644.47 512.6 1654.57 512.6C1661.87 512.6 1668.92 511.4 1675.72 509C1682.52 506.6 1689.07 503.4 1695.37 499.4L1714.42 525.2C1706.92 531.6 1697.82 536.85 1687.12 540.95C1676.52 545.05 1664.42 547.1 1650.82 547.1C1632.62 547.1 1617.37 543.5 1605.07 536.3C1592.77 529 1583.52 519 1577.32 506.3C1571.12 493.6 1568.02 479 1568.02 462.5C1568.02 446.8 1571.02 432.55 1577.02 419.75C1583.02 406.85 1591.77 396.6 1603.27 389C1614.87 381.3 1629.02 377.45 1645.72 377.45C1660.92 377.45 1674.07 380.7 1685.17 387.2C1696.37 393.7 1705.02 403.05 1711.12 415.25C1717.32 427.45 1720.42 442.1 1720.42 459.2C1720.42 461.9 1720.32 464.8 1720.12 467.9C1720.02 471 1719.82 473.75 1719.52 476.15H1616.32ZM1645.72 409.25C1637.22 409.25 1630.37 412.3 1625.17 418.4C1619.97 424.5 1616.82 434.25 1615.72 447.65H1674.22C1674.12 436.05 1671.87 426.75 1667.47 419.75C1663.07 412.75 1655.82 409.25 1645.72 409.25ZM1819.01 513.2C1826.91 513.2 1833.26 511.95 1838.06 509.45C1842.96 506.95 1845.41 503.2 1845.41 498.2C1845.41 494.8 1844.46 491.95 1842.56 489.65C1840.66 487.35 1837.01 485.15 1831.61 483.05C1826.21 480.95 1818.21 478.45 1807.61 475.55C1793.01 471.65 1781.11 466.05 1771.91 458.75C1762.81 451.45 1758.26 440.75 1758.26 426.65C1758.26 412.45 1764.16 400.7 1775.96 391.4C1787.86 382.1 1805.01 377.45 1827.41 377.45C1841.61 377.45 1853.96 379.3 1864.46 383C1875.06 386.6 1884.21 391.2 1891.91 396.8L1873.01 424.7C1866.41 420.6 1859.31 417.35 1851.71 414.95C1844.11 412.45 1836.46 411.2 1828.76 411.2C1813.56 411.2 1805.96 415.3 1805.96 423.5C1805.96 426.2 1806.91 428.55 1808.81 430.55C1810.81 432.45 1814.51 434.45 1819.91 436.55C1825.31 438.55 1833.21 441.05 1843.61 444.05C1853.91 446.95 1862.86 450.3 1870.46 454.1C1878.16 457.9 1884.11 463 1888.31 469.4C1892.51 475.7 1894.61 484.05 1894.61 494.45C1894.61 506.05 1891.16 515.8 1884.26 523.7C1877.36 531.5 1868.21 537.35 1856.81 541.25C1845.41 545.15 1832.91 547.1 1819.31 547.1C1803.91 547.1 1790.31 544.9 1778.51 540.5C1766.71 536.1 1756.66 530.3 1748.36 523.1L1772.21 496.4C1778.41 501.2 1785.41 505.2 1793.21 508.4C1801.11 511.6 1809.71 513.2 1819.01 513.2ZM1955.84 358.25L2073.14 430.85V464.75L1956.29 537.35L1934.84 505.1L2032.34 447.8L1934.84 392.3L1955.84 358.25Z" fill="#31B8EB"/>
<g filter="url(#filter0_d)">
<ellipse cx="258.885" cy="207.898" rx="154.885" ry="145.498" fill="url(#paint0_linear)" style="mix-blend-mode:darken"/>
</g>
<ellipse rx="32.3831" ry="16.1428" transform="matrix(-0.883113 0.469161 -0.558935 -0.829212 197.38 125.898)" fill="url(#paint1_radial)"/>
<g filter="url(#filter1_d)">
<ellipse cx="259.257" cy="660.367" rx="103.257" ry="98.7673" fill="url(#paint2_linear)" style="mix-blend-mode:darken"/>
</g>
<ellipse rx="21.676" ry="10.8972" transform="matrix(-0.879558 0.475792 -0.551995 -0.833847 218.253 604.704)" fill="url(#paint3_radial)"/>
<g filter="url(#filter2_d)">
<ellipse cx="956.057" cy="878.767" rx="103.257" ry="98.7672" fill="url(#paint4_linear)" style="mix-blend-mode:darken"/>
</g>
<g filter="url(#filter3_d)">
<ellipse cx="2442.88" cy="447.098" rx="154.885" ry="145.498" fill="url(#paint5_linear)" style="mix-blend-mode:darken"/>
</g>
<ellipse rx="32.3831" ry="16.1428" transform="matrix(-0.883113 0.469161 -0.558935 -0.829212 2381.38 365.098)" fill="url(#paint6_radial)"/>
<g filter="url(#filter4_d)">
<ellipse cx="1704.86" cy="161.167" rx="103.257" ry="98.7671" fill="url(#paint7_linear)" style="mix-blend-mode:darken"/>
</g>
<ellipse rx="21.6761" ry="10.8972" transform="matrix(-0.879559 0.47579 -0.551998 -0.833846 1663.85 105.504)" fill="url(#paint8_radial)"/>
<path d="M1570.37 736.8C1570.37 727.8 1565.87 723.3 1556.87 723.3C1543.54 723.3 1528.04 730.967 1510.37 746.3C1493.04 761.3 1478.54 777.133 1466.87 793.8C1461.87 803.467 1457.7 815.633 1454.37 830.3C1451.37 844.967 1449.87 855.133 1449.87 860.8C1449.87 866.467 1450.87 870.133 1452.87 871.8H1421.37C1416.37 871.8 1415.04 867.467 1417.37 858.8C1420.04 849.8 1423.54 840.133 1427.87 829.8C1432.2 819.467 1437.54 807.633 1443.87 794.3C1450.54 780.633 1455.37 770.3 1458.37 763.3C1431.04 814.967 1413.37 844.633 1405.37 852.3C1402.04 855.3 1400.37 854.3 1400.37 849.3C1400.37 848.3 1400.7 847.133 1401.37 845.8C1413.04 830.467 1436.2 788.8 1470.87 720.8C1505.87 652.8 1530.37 608.3 1544.37 587.3C1555.7 570.967 1566.7 562.8 1577.37 562.8C1577.37 562.8 1577.54 562.8 1577.87 562.8H1580.37C1580.7 562.8 1583.54 563.3 1588.87 564.3C1594.54 565.3 1598.7 565.467 1601.37 564.8C1589.04 574.133 1572.04 595.633 1550.37 629.3C1528.7 662.633 1511.54 691.967 1498.87 717.3C1486.2 742.3 1477.7 761.3 1473.37 774.3C1503.7 736.633 1530.87 713.3 1554.87 704.3C1566.2 700.633 1575.2 698.8 1581.87 698.8C1596.54 698.8 1603.87 704.967 1603.87 717.3C1603.87 721.3 1603.04 725.8 1601.37 730.8C1596.7 743.467 1587.04 754.967 1572.37 765.3C1558.04 775.3 1542.2 781.133 1524.87 782.8C1520.87 792.133 1518.87 800.8 1518.87 808.8C1518.87 816.467 1519.7 823.467 1521.37 829.8C1525.37 845.8 1532.87 855.633 1543.87 859.3C1546.2 859.967 1548.54 860.3 1550.87 860.3C1560.2 860.3 1571.2 854.467 1583.87 842.8C1594.2 831.467 1607.7 808.633 1624.37 774.3C1626.7 769.967 1628.54 768.633 1629.87 770.3C1631.2 771.633 1631.87 772.967 1631.87 774.3C1631.87 775.633 1629.37 782.133 1624.37 793.8C1619.37 805.467 1612.37 818.3 1603.37 832.3C1584.37 860.967 1563.37 875.3 1540.37 875.3C1526.37 875.3 1515.54 871.3 1507.87 863.3C1496.87 851.967 1491.37 837.133 1491.37 818.8C1491.37 809.467 1493.87 799.967 1498.87 790.3C1503.87 780.633 1509.7 775.467 1516.37 774.8C1517.37 774.8 1518.37 774.8 1519.37 774.8C1531.04 774.8 1542.37 770.3 1553.37 761.3C1564.7 752.3 1570.37 744.133 1570.37 736.8ZM1774.01 707.8C1733.01 779.8 1712.51 826.8 1712.51 848.8C1712.51 857.467 1715.68 861.8 1722.01 861.8C1739.01 861.8 1761.84 832.967 1790.51 775.3C1792.51 770.633 1794.51 768.8 1796.51 769.8C1798.51 770.8 1799.51 772.133 1799.51 773.8C1799.51 775.467 1798.84 777.467 1797.51 779.8C1779.84 815.467 1764.84 840.133 1752.51 853.8C1740.51 867.133 1728.34 873.8 1716.01 873.8C1704.01 873.8 1694.84 869.133 1688.51 859.8C1685.18 855.467 1683.51 849.633 1683.51 842.3C1683.51 834.633 1685.18 825.467 1688.51 814.8C1691.84 804.133 1701.01 786.8 1716.01 762.8C1719.68 756.8 1721.51 752.133 1721.51 748.8C1721.51 745.133 1718.68 743.3 1713.01 743.3C1707.34 743.3 1696.51 750.8 1680.51 765.8C1656.51 787.8 1633.34 820.8 1611.01 864.8C1609.01 868.133 1606.68 870.3 1604.01 871.3C1601.68 871.967 1596.84 872.467 1589.51 872.8C1582.18 873.133 1577.34 873.967 1575.01 875.3C1580.34 864.633 1590.84 842.8 1606.51 809.8C1634.51 751.467 1652.84 718.133 1661.51 709.8C1665.51 705.8 1671.01 703.8 1678.01 703.8C1679.34 703.8 1682.68 704.3 1688.01 705.3C1693.68 706.3 1697.84 706.467 1700.51 705.8C1688.18 712.467 1668.01 743.8 1640.01 799.8C1655.68 780.467 1669.84 765.133 1682.51 753.8C1695.51 742.133 1711.01 731.467 1729.01 721.8C1747.01 711.8 1760.18 706.8 1768.51 706.8C1770.51 706.8 1772.34 707.133 1774.01 707.8ZM1858.99 677.3C1854.32 681.3 1849.16 683.3 1843.49 683.3C1837.82 683.3 1833.32 681.3 1829.99 677.3C1826.66 673.3 1825.32 668.467 1825.99 662.8C1826.99 657.133 1829.82 652.3 1834.49 648.3C1839.16 644.3 1844.32 642.3 1849.99 642.3C1855.66 642.3 1860.16 644.3 1863.49 648.3C1867.16 652.3 1868.49 657.133 1867.49 662.8C1866.49 668.467 1863.66 673.3 1858.99 677.3ZM1809.99 860.8C1816.32 860.8 1822.99 857.633 1829.99 851.3C1842.32 838.967 1857.99 813.8 1876.99 775.8C1879.32 770.8 1881.66 769.3 1883.99 771.3C1884.66 771.967 1884.99 773.133 1884.99 774.8C1884.99 776.133 1883.66 779.8 1880.99 785.8C1878.32 791.467 1875.82 796.633 1873.49 801.3C1871.49 805.967 1867.32 813.633 1860.99 824.3C1854.99 834.633 1849.49 842.633 1844.49 848.3C1830.82 863.967 1817.82 871.8 1805.49 871.8C1793.49 871.8 1784.82 868.133 1779.49 860.8C1774.16 853.467 1771.49 845.3 1771.49 836.3C1771.49 827.3 1773.66 817.467 1777.99 806.8L1809.99 725.3C1810.66 723.3 1810.99 720.633 1810.99 717.3C1810.99 713.967 1808.99 709.633 1804.99 704.3L1832.49 703.8C1840.16 703.8 1844.66 705.3 1845.99 708.3C1847.32 710.967 1846.32 715.3 1842.99 721.3L1802.99 814.8C1797.32 827.133 1794.49 837.633 1794.49 846.3C1794.49 855.967 1799.66 860.8 1809.99 860.8ZM1864.91 831.8C1864.91 804.133 1878.24 757.8 1904.91 692.8H1878.91C1877.24 692.8 1876.07 691.967 1875.41 690.3C1875.07 688.3 1875.24 686.467 1875.91 684.8C1876.91 682.8 1878.24 681.8 1879.91 681.8H1909.91C1921.91 655.467 1933.07 633.467 1943.41 615.8C1953.74 598.133 1963.24 586.3 1971.91 580.3C1980.57 573.967 1986.74 570.8 1990.41 570.8C1994.41 570.8 1997.24 571.133 1998.91 571.8C2006.57 575.467 2010.41 583.133 2010.41 594.8C2010.41 606.133 2006.57 619.967 1998.91 636.3C1991.24 652.633 1983.74 667.8 1976.41 681.8H2000.41C2002.07 681.8 2003.07 682.8 2003.41 684.8C2004.07 686.467 2003.91 688.3 2002.91 690.3C2002.24 691.967 2001.07 692.8 1999.41 692.8H1970.41C1952.07 723.8 1929.91 751.3 1903.91 775.3L1892.41 826.3C1891.41 830.633 1890.91 834.967 1890.91 839.3C1890.91 843.3 1892.07 847.467 1894.41 851.8C1896.74 856.133 1900.41 858.3 1905.41 858.3C1911.07 858.3 1917.41 856.3 1924.41 852.3C1940.41 840.3 1958.07 815.133 1977.41 776.8C1978.74 773.8 1980.24 771.967 1981.91 771.3C1983.91 770.633 1985.07 771.133 1985.41 772.8C1985.74 774.133 1985.24 776.467 1983.91 779.8C1972.91 802.8 1964.24 819.133 1957.91 828.8C1939.91 857.8 1920.74 872.3 1900.41 872.3C1890.07 872.3 1881.57 868.467 1874.91 860.8C1868.24 853.133 1864.91 843.467 1864.91 831.8ZM1965.41 681.8C1987.41 642.467 1998.41 615.133 1998.41 599.8C1998.41 593.133 1997.24 589.8 1994.91 589.8C1991.24 589.8 1985.57 595.133 1977.91 605.8C1970.57 616.467 1958.07 641.8 1940.41 681.8H1965.41ZM1958.91 692.8H1935.41C1931.41 702.133 1922.41 724.3 1908.41 759.3C1926.41 740.633 1943.24 718.467 1958.91 692.8ZM1965 831.8C1965 804.133 1978.34 757.8 2005 692.8H1979C1977.34 692.8 1976.17 691.967 1975.5 690.3C1975.17 688.3 1975.34 686.467 1976 684.8C1977 682.8 1978.34 681.8 1980 681.8H2010C2022 655.467 2033.17 633.467 2043.5 615.8C2053.84 598.133 2063.34 586.3 2072 580.3C2080.67 573.967 2086.84 570.8 2090.5 570.8C2094.5 570.8 2097.34 571.133 2099 571.8C2106.67 575.467 2110.5 583.133 2110.5 594.8C2110.5 606.133 2106.67 619.967 2099 636.3C2091.34 652.633 2083.84 667.8 2076.5 681.8H2100.5C2102.17 681.8 2103.17 682.8 2103.5 684.8C2104.17 686.467 2104 688.3 2103 690.3C2102.34 691.967 2101.17 692.8 2099.5 692.8H2070.5C2052.17 723.8 2030 751.3 2004 775.3L1992.5 826.3C1991.5 830.633 1991 834.967 1991 839.3C1991 843.3 1992.17 847.467 1994.5 851.8C1996.84 856.133 2000.5 858.3 2005.5 858.3C2011.17 858.3 2017.5 856.3 2024.5 852.3C2040.5 840.3 2058.17 815.133 2077.5 776.8C2078.84 773.8 2080.34 771.967 2082 771.3C2084 770.633 2085.17 771.133 2085.5 772.8C2085.84 774.133 2085.34 776.467 2084 779.8C2073 802.8 2064.34 819.133 2058 828.8C2040 857.8 2020.84 872.3 2000.5 872.3C1990.17 872.3 1981.67 868.467 1975 860.8C1968.34 853.133 1965 843.467 1965 831.8ZM2065.5 681.8C2087.5 642.467 2098.5 615.133 2098.5 599.8C2098.5 593.133 2097.34 589.8 2095 589.8C2091.34 589.8 2085.67 595.133 2078 605.8C2070.67 616.467 2058.17 641.8 2040.5 681.8H2065.5ZM2059 692.8H2035.5C2031.5 702.133 2022.5 724.3 2008.5 759.3C2026.5 740.633 2043.34 718.467 2059 692.8ZM2146.1 677.3C2141.43 681.3 2136.27 683.3 2130.6 683.3C2124.93 683.3 2120.43 681.3 2117.1 677.3C2113.77 673.3 2112.43 668.467 2113.1 662.8C2114.1 657.133 2116.93 652.3 2121.6 648.3C2126.27 644.3 2131.43 642.3 2137.1 642.3C2142.77 642.3 2147.27 644.3 2150.6 648.3C2154.27 652.3 2155.6 657.133 2154.6 662.8C2153.6 668.467 2150.77 673.3 2146.1 677.3ZM2097.1 860.8C2103.43 860.8 2110.1 857.633 2117.1 851.3C2129.43 838.967 2145.1 813.8 2164.1 775.8C2166.43 770.8 2168.77 769.3 2171.1 771.3C2171.77 771.967 2172.1 773.133 2172.1 774.8C2172.1 776.133 2170.77 779.8 2168.1 785.8C2165.43 791.467 2162.93 796.633 2160.6 801.3C2158.6 805.967 2154.43 813.633 2148.1 824.3C2142.1 834.633 2136.6 842.633 2131.6 848.3C2117.93 863.967 2104.93 871.8 2092.6 871.8C2080.6 871.8 2071.93 868.133 2066.6 860.8C2061.27 853.467 2058.6 845.3 2058.6 836.3C2058.6 827.3 2060.77 817.467 2065.1 806.8L2097.1 725.3C2097.77 723.3 2098.1 720.633 2098.1 717.3C2098.1 713.967 2096.1 709.633 2092.1 704.3L2119.6 703.8C2127.27 703.8 2131.77 705.3 2133.1 708.3C2134.43 710.967 2133.43 715.3 2130.1 721.3L2090.1 814.8C2084.43 827.133 2081.6 837.633 2081.6 846.3C2081.6 855.967 2086.77 860.8 2097.1 860.8ZM2315.52 707.8C2274.52 779.8 2254.02 826.8 2254.02 848.8C2254.02 857.467 2257.18 861.8 2263.52 861.8C2280.52 861.8 2303.35 832.967 2332.02 775.3C2334.02 770.633 2336.02 768.8 2338.02 769.8C2340.02 770.8 2341.02 772.133 2341.02 773.8C2341.02 775.467 2340.35 777.467 2339.02 779.8C2321.35 815.467 2306.35 840.133 2294.02 853.8C2282.02 867.133 2269.85 873.8 2257.52 873.8C2245.52 873.8 2236.35 869.133 2230.02 859.8C2226.68 855.467 2225.02 849.633 2225.02 842.3C2225.02 834.633 2226.68 825.467 2230.02 814.8C2233.35 804.133 2242.52 786.8 2257.52 762.8C2261.18 756.8 2263.02 752.133 2263.02 748.8C2263.02 745.133 2260.18 743.3 2254.52 743.3C2248.85 743.3 2238.02 750.8 2222.02 765.8C2198.02 787.8 2174.85 820.8 2152.52 864.8C2150.52 868.133 2148.18 870.3 2145.52 871.3C2143.18 871.967 2138.35 872.467 2131.02 872.8C2123.68 873.133 2118.85 873.967 2116.52 875.3C2121.85 864.633 2132.35 842.8 2148.02 809.8C2176.02 751.467 2194.35 718.133 2203.02 709.8C2207.02 705.8 2212.52 703.8 2219.52 703.8C2220.85 703.8 2224.18 704.3 2229.52 705.3C2235.18 706.3 2239.35 706.467 2242.02 705.8C2229.68 712.467 2209.52 743.8 2181.52 799.8C2197.18 780.467 2211.35 765.133 2224.02 753.8C2237.02 742.133 2252.52 731.467 2270.52 721.8C2288.52 711.8 2301.68 706.8 2310.02 706.8C2312.02 706.8 2313.85 707.133 2315.52 707.8ZM2297.5 1029.8C2266.16 1029.8 2250.5 1016.97 2250.5 991.3C2250.5 969.967 2265 950.8 2294 933.8C2318.66 919.467 2350.16 905.967 2388.5 893.3C2406.16 887.633 2419 883.133 2427 879.8C2435.66 854.467 2440 826.8 2440 796.8C2440 790.8 2439.66 786.3 2439 783.3C2429.66 802.3 2416.83 821.8 2400.5 841.8C2381.16 865.8 2362 875.133 2343 869.8C2325.66 862.467 2317 848.133 2317 826.8C2317 798.133 2331.33 766.633 2360 732.3C2375.66 713.633 2394 701.8 2415 696.8C2420.66 695.133 2426.33 694.3 2432 694.3C2447 694.3 2461.66 699.3 2476 709.3C2481.33 713.633 2484 717.3 2484 720.3C2484 723.3 2483 726.3 2481 729.3C2479 731.967 2476.83 732.3 2474.5 730.3C2472.5 727.967 2471.16 725.8 2470.5 723.8C2466.16 711.467 2459.16 705.3 2449.5 705.3C2431.83 705.3 2412 717.633 2390 742.3C2377.66 756.3 2367 771.3 2358 787.3C2347 807.3 2341.5 822.8 2341.5 833.8C2341.5 844.467 2344.83 851.633 2351.5 855.3C2353.83 856.3 2356.16 856.8 2358.5 856.8C2366.16 856.8 2375.66 851.633 2387 841.3C2398.66 830.633 2409.33 817.3 2419 801.3C2429 784.967 2435.33 772.3 2438 763.3C2440.66 754.3 2443.83 748.633 2447.5 746.3C2451.5 743.967 2455.83 742.633 2460.5 742.3C2465.16 741.967 2468.33 741.133 2470 739.8C2472.66 754.8 2474 772.467 2474 792.8C2474 812.8 2470.5 835.633 2463.5 861.3C2478.83 850.3 2489.66 840.467 2496 831.8C2502.66 823.133 2507.83 815.3 2511.5 808.3C2515.5 801.3 2519 794.467 2522 787.8C2525 780.8 2527 776.3 2528 774.3C2529 772.3 2530.66 771.133 2533 770.8C2535.33 770.133 2536.5 771.133 2536.5 773.8C2536.5 775.467 2536 777.467 2535 779.8C2520.33 810.133 2508 832.133 2498 845.8C2488.33 859.133 2475 869.8 2458 877.8C2450 900.467 2438.33 922.967 2423 945.3C2408 967.633 2389 987.3 2366 1004.3C2343 1021.3 2320.16 1029.8 2297.5 1029.8ZM2261 1000.8C2261 1013.47 2269.16 1019.8 2285.5 1019.8C2295.16 1019.8 2306 1016.97 2318 1011.3C2330.33 1005.63 2340.5 999.8 2348.5 993.8C2362.16 982.8 2377.16 966.467 2393.5 944.8C2405.83 927.467 2415.33 910.633 2422 894.3L2404.5 900.3C2352.5 918.3 2315.83 934.3 2294.5 948.3C2278.83 958.633 2268.5 971.8 2263.5 987.8C2261.83 992.8 2261 997.133 2261 1000.8Z" fill="#C92C0E"/>
</g>
<defs>
<filter id="filter0_d" x="100" y="62.3999" width="317.77" height="298.996" filterUnits="userSpaceOnUse" color-interpolation-filters="sRGB">
<feFlood flood-opacity="0" result="BackgroundImageFix"/>
<feColorMatrix in="SourceAlpha" type="matrix" values="0 0 0 0 0 0 0 0 0 0 0 0 0 0 0 0 0 0 127 0"/>
<feOffset dy="4"/>
<feGaussianBlur stdDeviation="2"/>
<feColorMatrix type="matrix" values="0 0 0 0 0 0 0 0 0 0 0 0 0 0 0 0 0 0 0.25 0"/>
<feBlend mode="normal" in2="BackgroundImageFix" result="effect1_dropShadow"/>
<feBlend mode="normal" in="SourceGraphic" in2="effect1_dropShadow" result="shape"/>
</filter>
<filter id="filter1_d" x="152" y="561.6" width="214.513" height="205.535" filterUnits="userSpaceOnUse" color-interpolation-filters="sRGB">
<feFlood flood-opacity="0" result="BackgroundImageFix"/>
<feColorMatrix in="SourceAlpha" type="matrix" values="0 0 0 0 0 0 0 0 0 0 0 0 0 0 0 0 0 0 127 0"/>
<feOffset dy="4"/>
<feGaussianBlur stdDeviation="2"/>
<feColorMatrix type="matrix" values="0 0 0 0 0 0 0 0 0 0 0 0 0 0 0 0 0 0 0.25 0"/>
<feBlend mode="normal" in2="BackgroundImageFix" result="effect1_dropShadow"/>
<feBlend mode="normal" in="SourceGraphic" in2="effect1_dropShadow" result="shape"/>
</filter>
<filter id="filter2_d" x="848.8" y="780" width="214.513" height="205.534" filterUnits="userSpaceOnUse" color-interpolation-filters="sRGB">
<feFlood flood-opacity="0" result="BackgroundImageFix"/>
<feColorMatrix in="SourceAlpha" type="matrix" values="0 0 0 0 0 0 0 0 0 0 0 0 0 0 0 0 0 0 127 0"/>
<feOffset dy="4"/>
<feGaussianBlur stdDeviation="2"/>
<feColorMatrix type="matrix" values="0 0 0 0 0 0 0 0 0 0 0 0 0 0 0 0 0 0 0.25 0"/>
<feBlend mode="normal" in2="BackgroundImageFix" result="effect1_dropShadow"/>
<feBlend mode="normal" in="SourceGraphic" in2="effect1_dropShadow" result="shape"/>
</filter>
<filter id="filter3_d" x="2284" y="301.6" width="317.77" height="298.996" filterUnits="userSpaceOnUse" color-interpolation-filters="sRGB">
<feFlood flood-opacity="0" result="BackgroundImageFix"/>
<feColorMatrix in="SourceAlpha" type="matrix" values="0 0 0 0 0 0 0 0 0 0 0 0 0 0 0 0 0 0 127 0"/>
<feOffset dy="4"/>
<feGaussianBlur stdDeviation="2"/>
<feColorMatrix type="matrix" values="0 0 0 0 0 0 0 0 0 0 0 0 0 0 0 0 0 0 0.25 0"/>
<feBlend mode="normal" in2="BackgroundImageFix" result="effect1_dropShadow"/>
<feBlend mode="normal" in="SourceGraphic" in2="effect1_dropShadow" result="shape"/>
</filter>
<filter id="filter4_d" x="1597.6" y="62.3999" width="214.514" height="205.534" filterUnits="userSpaceOnUse" color-interpolation-filters="sRGB">
<feFlood flood-opacity="0" result="BackgroundImageFix"/>
<feColorMatrix in="SourceAlpha" type="matrix" values="0 0 0 0 0 0 0 0 0 0 0 0 0 0 0 0 0 0 127 0"/>
<feOffset dy="4"/>
<feGaussianBlur stdDeviation="2"/>
<feColorMatrix type="matrix" values="0 0 0 0 0 0 0 0 0 0 0 0 0 0 0 0 0 0 0.25 0"/>
<feBlend mode="normal" in2="BackgroundImageFix" result="effect1_dropShadow"/>
<feBlend mode="normal" in="SourceGraphic" in2="effect1_dropShadow" result="shape"/>
</filter>
<linearGradient id="paint0_linear" x1="164.405" y1="103.139" x2="378.533" y2="344.944" gradientUnits="userSpaceOnUse">
<stop stop-color="#31B8EB" stop-opacity="0.36"/>
<stop offset="0.338542" stop-color="#31B8EB" stop-opacity="0.81"/>
<stop offset="0.640625" stop-color="#31B8EB" stop-opacity="0.99"/>
</linearGradient>
<radialGradient id="paint1_radial" cx="0" cy="0" r="1" gradientUnits="userSpaceOnUse" gradientTransform="translate(32.1336 15.7595) rotate(143.371) scale(24.4154 28.0729)">
<stop stop-color="white"/>
<stop offset="0.526042" stop-color="white"/>
<stop offset="0.9375" stop-color="#B4C2CE"/>
</radialGradient>
<linearGradient id="paint2_linear" x1="196.27" y1="589.255" x2="341.92" y2="750.785" gradientUnits="userSpaceOnUse">
<stop stop-color="#31B8EB" stop-opacity="0.36"/>
<stop offset="0.338542" stop-color="#31B8EB" stop-opacity="0.81"/>
<stop offset="0.640625" stop-color="#31B8EB" stop-opacity="0.99"/>
</linearGradient>
<radialGradient id="paint3_radial" cx="0" cy="0" r="1" gradientUnits="userSpaceOnUse" gradientTransform="translate(21.509 10.6384) rotate(143.138) scale(16.3923 18.8933)">
<stop stop-color="white"/>
<stop offset="0.526042" stop-color="white"/>
<stop offset="0.9375" stop-color="#B4C2CE"/>
</radialGradient>
<linearGradient id="paint4_linear" x1="893.07" y1="807.655" x2="1038.72" y2="969.184" gradientUnits="userSpaceOnUse">
<stop stop-color="#31B8EB" stop-opacity="0.36"/>
<stop offset="0.338542" stop-color="#31B8EB" stop-opacity="0.81"/>
<stop offset="0.640625" stop-color="#31B8EB" stop-opacity="0.99"/>
</linearGradient>
<linearGradient id="paint5_linear" x1="2348.41" y1="342.34" x2="2562.53" y2="584.144" gradientUnits="userSpaceOnUse">
<stop stop-color="#31B8EB" stop-opacity="0.36"/>
<stop offset="0.338542" stop-color="#31B8EB" stop-opacity="0.81"/>
<stop offset="0.640625" stop-color="#31B8EB" stop-opacity="0.99"/>
</linearGradient>
<radialGradient id="paint6_radial" cx="0" cy="0" r="1" gradientUnits="userSpaceOnUse" gradientTransform="translate(32.1336 15.7595) rotate(143.371) scale(24.4154 28.0729)">
<stop stop-color="white"/>
<stop offset="0.526042" stop-color="white"/>
<stop offset="0.9375" stop-color="#B4C2CE"/>
</radialGradient>
<linearGradient id="paint7_linear" x1="1641.87" y1="90.0547" x2="1787.52" y2="251.585" gradientUnits="userSpaceOnUse">
<stop stop-color="#31B8EB" stop-opacity="0.36"/>
<stop offset="0.338542" stop-color="#31B8EB" stop-opacity="0.81"/>
<stop offset="0.640625" stop-color="#31B8EB" stop-opacity="0.99"/>
</linearGradient>
<radialGradient id="paint8_radial" cx="0" cy="0" r="1" gradientUnits="userSpaceOnUse" gradientTransform="translate(21.5091 10.6385) rotate(143.139) scale(16.3924 18.8933)">
<stop stop-color="white"/>
<stop offset="0.526042" stop-color="white"/>
<stop offset="0.9375" stop-color="#B4C2CE"/>
</radialGradient>
<clipPath id="clip0">
<rect width="2600" height="1040" fill="white"/>
</clipPath>
</defs>
</svg>
